<svg width="128" height="29" viewBox="0 0 128 29" fill="none" xmlns="http://www.w3.org/2000/svg">
<path d="M0.905 28H12.035C20.05 28 25.545 23.17 25.545 15.75C25.545 8.33 20.05 3.5 12.035 3.5H0.905V28ZM6.575 23.345V8.155H11.755C16.62 8.155 19.805 11.06 19.805 15.75C19.805 20.44 16.62 23.345 11.755 23.345H6.575ZM32.166 6.545C34.196 6.545 35.561 5.215 35.561 3.395C35.561 1.715 34.196 0.454998 32.166 0.454998C30.136 0.454998 28.771 1.785 28.771 3.5C28.771 5.215 30.136 6.545 32.166 6.545ZM29.436 28H34.896V9.17H29.436V28ZM48.9234 28.28C54.9084 28.28 59.2484 24.255 59.2484 18.585C59.2484 12.915 54.9084 8.89 48.9234 8.89C42.9384 8.89 38.5634 12.915 38.5634 18.585C38.5634 24.255 42.9384 28.28 48.9234 28.28ZM48.9234 23.8C46.1934 23.8 44.0934 21.84 44.0934 18.585C44.0934 15.33 46.1934 13.37 48.9234 13.37C51.6534 13.37 53.7184 15.33 53.7184 18.585C53.7184 21.84 51.6534 23.8 48.9234 23.8Z" fill="black"/>
<path d="M62.6529 4.9V3.92H69.6529L83.1629 26.985V28H76.1979L62.6529 4.9ZM76.5129 12.705V3.92H83.1629V24.08L76.5129 12.705ZM62.6529 7.805L69.3029 19.18V28H62.6529V7.805ZM87.7066 3.92H94.7066V28H87.7066V3.92ZM96.1766 3.92H105.067V9.275H96.1766V3.92ZM96.1766 13.16H103.422V18.515H96.1766V13.16ZM96.1766 22.645H105.067V28H96.1766V22.645ZM107.314 3.92H127.019V9.52H107.314V3.92ZM113.649 10.92H120.649V28H113.649V10.92Z" fill="white"/>
</svg>
