<svg width="671" height="342" viewBox="0 0 671 342" fill="none" xmlns="http://www.w3.org/2000/svg">
<path d="M155.849 31.2852C155.608 29.3803 155.12 27.5148 154.399 25.7355C154.307 25.399 154.146 25.0854 153.926 24.8146C153.706 24.5437 153.432 24.3217 153.122 24.1626C152.707 24.0547 152.272 24.0498 151.855 24.1484L145.349 25.1439C144.804 25.1687 144.283 25.3713 143.864 25.7207C143.017 26.6118 143.851 28.0468 143.825 29.2762C143.796 30.6587 142.568 31.7809 141.236 32.1521C139.876 32.4269 138.474 32.4095 137.121 32.1011L128.024 30.6874C130.703 29.832 133.088 28.2406 134.906 26.0947C136.103 24.6765 136.74 22.0287 135.01 21.3571C134.496 21.216 133.96 21.173 133.43 21.2302C129.308 21.2623 126.065 17.8209 122.206 16.3715C119.736 15.5039 117.056 15.4393 114.547 16.1871C112.039 16.9349 109.831 18.4568 108.24 20.5351L113.086 20.7687C113.542 20.7436 113.994 20.8641 114.377 21.113C115.439 21.9856 114.118 23.6617 114.268 25.0281C114.462 26.8034 116.819 27.1824 118.596 27.362C120.373 27.5415 122.627 28.9851 121.773 30.5532C112.842 33.6293 103.754 24.5401 94.3749 25.6589C92.0011 25.9421 89.7596 26.8746 87.442 27.461C73.2845 31.0431 58.6481 21.4858 44.1853 23.5098C40.9701 24.058 37.8101 24.8914 34.7427 26.0002C32.7743 26.6465 30.7211 27.345 29.2909 28.8439C27.8607 30.3428 27.3164 32.9062 28.6713 34.4735C24.9368 34.781 21.1773 34.4237 17.5676 33.4181C18.5438 33.9607 19.3558 34.756 19.9185 35.7207C20.4813 36.6853 20.774 37.7837 20.7658 38.9005C14.9348 39.8513 9.25825 41.5822 3.88874 44.0465C4.8909 45.713 6.06141 47.2723 7.3819 48.6998L0 53.4423C2.49396 54.0707 3.78339 57.4714 2.33307 59.5953C4.91902 58.4449 6.52167 55.4689 9.28691 54.8655C11.0985 54.4702 12.9419 55.2113 14.6604 55.9075C16.379 56.6037 18.2679 57.2787 20.047 56.7562C21.8261 56.2337 23.1383 53.9269 22.0079 52.4571C29.6122 50.2384 37.4711 49.0106 45.3898 48.804C46.0007 48.7274 46.6202 48.845 47.1606 49.1401C48.1914 49.8553 47.9202 51.4 47.8647 52.6533C47.8091 53.9067 48.786 55.554 49.9062 54.989C48.5883 56.1319 49.7149 58.2833 50.9794 59.4851C52.2438 60.6868 53.7678 62.3451 52.9937 63.9083C52.7916 64.3163 52.4489 64.6428 52.2546 65.0545C51.6808 66.2697 52.5918 67.6865 53.6664 68.4935C54.741 69.3005 56.0572 69.8645 56.8037 70.982C57.5502 72.0995 57.2112 74.0556 55.8764 74.2116L52.0824 69.3946C50.7862 70.7387 49.8976 72.4227 49.5196 74.2513C53.5427 77.5402 54.1479 84.2343 50.7797 88.1913C49.0585 90.2135 46.6108 91.4422 44.4745 93.0194C42.3382 94.5967 40.3614 96.8427 40.3668 99.4982C40.3761 104.086 40.0012 108.348 41.7203 112.602C44.8904 120.444 48.5504 128.08 52.6787 135.464C53.7628 137.403 55.1638 139.528 57.36 139.862C54.5845 133.105 52.086 126.243 49.8645 119.276C51.3114 119.282 52.9835 119.397 53.8317 120.569C54.5341 121.54 54.3832 122.859 54.6014 124.037C54.879 125.179 55.3419 126.267 55.9716 127.259L69.2255 150.868C70.3242 152.825 71.5845 154.926 73.6843 155.718C75.0269 156.225 76.5802 156.129 77.8159 156.859C78.7845 157.431 79.4368 158.446 80.4243 158.985C83.2162 160.508 87.0988 157.587 89.708 159.405C90.454 159.925 90.9286 160.751 91.616 161.346C94.0258 163.433 97.9789 162.037 100.761 163.594C102.554 164.597 103.483 166.604 104.439 168.422C106.834 172.977 110.71 177.439 115.844 177.802C117.456 177.916 119.103 177.61 120.68 177.969C122.256 178.328 123.808 179.703 123.555 181.3C123.121 184.037 124.473 187.034 124.11 189.782C123.448 194.787 116.35 196.986 115.74 201.997C115.606 203.094 115.815 204.227 115.554 205.301C115.234 206.617 114.245 207.689 113.894 208.997C113.228 211.476 115.005 213.944 116.956 215.612C118.908 217.28 121.235 218.718 122.302 221.054C123.43 223.522 122.876 226.399 123.243 229.088C124.043 234.957 129.113 239.309 134.33 242.114C135.92 242.969 137.627 243.797 138.656 245.279C139.998 247.215 139.865 249.767 140.313 252.079C141.411 257.743 146.179 262.41 146.315 268.178C146.411 272.277 144.132 275.996 142.771 279.864C141.495 283.57 141.033 287.508 141.417 291.409C141.801 295.31 143.022 299.082 144.996 302.468C146.015 304.187 147.233 305.808 147.953 307.672C149.238 310.999 148.821 314.78 150.007 318.144C151.574 322.59 155.879 326.263 155.467 330.96C157.422 335.02 161.739 337.014 166.079 338.223L173.859 340.388C175.348 340.803 176.905 341.221 178.422 340.92C179.938 340.62 181.386 339.361 181.347 337.815C177.532 336.955 173.595 336.04 170.45 333.715C167.305 331.39 165.151 327.251 166.344 323.526C166.897 321.8 168.074 319.805 166.955 318.378C166.315 317.561 165.143 317.348 164.42 316.603C163.293 315.44 163.68 313.487 164.491 312.085C165.301 310.683 166.472 309.43 166.799 307.844C166.964 306.956 166.854 306.04 166.483 305.217C166.113 304.394 165.499 303.704 164.725 303.24C166.168 302.695 167.479 301.854 168.576 300.769C169.588 299.613 170.056 297.83 169.259 296.516C171.625 296.816 174.417 296.963 175.97 295.153C177.21 293.708 177.125 291.548 176.635 289.708C176.145 287.868 175.317 286.081 175.291 284.177C180.748 284.436 186.217 284.25 191.643 283.623C190.858 280.98 189.075 278.747 186.672 277.396C189.129 276.98 191.368 274.038 192.145 271.67C192.921 269.301 192.723 266.721 192.243 264.275C192.059 263.645 192.034 262.979 192.17 262.338C192.447 261.456 193.313 260.917 194.115 260.457L206.314 253.451C207.042 253.086 207.702 252.599 208.265 252.011C209.543 250.509 209.353 248.243 208.699 246.383C208.045 244.523 206.996 242.774 206.744 240.819C205.99 234.971 212.251 230.775 214.364 225.269C215.193 223.109 215.362 220.76 215.522 218.452C215.694 215.973 215.707 213.093 213.803 211.495C211.979 209.963 209.127 210.305 207.218 208.88C205.467 207.574 204.863 205.037 202.95 203.982C201.213 203.024 199.035 203.633 197.104 203.183C193.702 202.389 191.562 198.469 188.088 198.106C186.128 197.902 183.91 198.86 182.304 197.718C180.888 196.712 180.831 194.691 180.562 192.976C180.09 190.31 178.812 187.852 176.901 185.935C174.989 184.017 172.536 182.732 169.872 182.251C167.851 181.927 165.651 182.05 163.932 180.939C162.191 179.815 161.393 177.71 160.026 176.152C157.822 173.642 154.351 172.751 151.1 171.986L137.874 168.877C135.527 168.325 132.5 168.033 131.24 170.089C130.867 170.872 130.603 171.703 130.456 172.557C129.984 174.103 129.034 175.46 127.742 176.432C126.451 177.404 124.884 177.942 123.268 177.967C122.16 176.077 120.364 174.687 118.255 174.089C116.914 173.715 115.479 173.674 114.2 173.124C113.503 172.784 112.883 172.305 112.378 171.717C111.873 171.13 111.493 170.445 111.262 169.705C111.03 168.965 110.952 168.186 111.032 167.415C111.113 166.644 111.349 165.898 111.728 165.221C112.491 163.864 112.785 162.293 112.566 160.751C112.347 159.21 111.627 157.783 110.516 156.691C108.267 154.672 105.014 154.184 101.998 154.386C101.208 152.663 102.529 150.718 103.952 149.466C105.375 148.214 107.103 146.982 107.413 145.112C107.901 142.17 104.147 139.935 101.297 140.813C98.4464 141.69 96.6273 144.458 95.4248 147.187C94.7348 148.753 94.1482 150.402 93.0599 151.722C91.9715 153.042 90.2189 153.988 88.5612 153.564C86.2143 152.964 85.3079 150.176 84.7885 147.81C84.0916 144.635 83.3906 141.417 83.5367 138.17C83.6827 134.924 84.7772 131.59 87.1713 129.392C91.0726 125.81 97.0574 126.161 102.322 126.733C101.079 125.331 101.386 122.969 102.717 121.65C103.419 121.026 104.264 120.582 105.176 120.358C106.089 120.134 107.043 120.136 107.955 120.363C109.541 120.694 110.97 121.548 112.012 122.789C113.508 124.614 113.934 127.077 115.065 129.147C116.196 131.218 118.739 132.984 120.82 131.873C122.618 130.913 122.903 128.421 122.456 126.432C122.008 124.444 121.058 122.511 121.22 120.48C121.529 116.604 125.547 114.271 129.093 112.674C132.638 111.078 136.698 108.931 137.26 105.084C137.279 104.33 137.421 103.585 137.681 102.878C138.074 102.253 138.62 101.739 139.268 101.385C149.616 94.5463 160.136 87.6243 171.963 83.8876C172.578 83.6932 172.651 83.9093 173.278 83.757C174.155 83.2497 173.574 81.8465 172.732 81.2813C171.891 80.716 170.766 80.2825 170.553 79.2916C170.396 78.5632 170.825 77.8479 170.937 77.1111C171.211 75.3007 169.045 73.6292 167.363 74.353C166.413 73.0948 168.293 71.6328 169.813 71.2143C174.377 69.9581 179.063 69.1927 183.789 68.9311C184.335 68.8444 184.894 68.9395 185.38 69.2016C186.174 69.7516 186.072 71.0129 185.51 71.7979C184.947 72.5829 184.072 73.0757 183.371 73.7399C182.605 74.4862 182.058 75.4285 181.791 76.4641C181.524 77.4997 181.547 78.5887 181.856 79.6124C184.324 80.8676 187.007 82.1597 189.74 81.7175C192.473 81.2753 194.898 78.2045 193.614 75.7521C192.418 73.4682 188.824 72.9531 188.206 70.4501C187.483 67.5195 191.631 64.913 190.697 62.0427C190.287 60.7854 189.034 60.0455 188.073 59.1378C186.937 58.0248 186.165 56.5945 185.857 55.0346C185.549 53.4748 185.72 51.8583 186.348 50.3974C184.782 50.6729 183.173 50.5689 181.655 50.094C180.137 49.6191 178.756 48.7872 177.626 47.6681C175.54 45.5628 173.876 42.2416 170.913 42.3358C168.195 42.4223 165.854 45.5938 163.312 44.6262C162.686 44.3881 162.027 43.9037 161.421 44.1875C161.222 44.3165 161.056 44.4888 160.934 44.6916C160.811 44.8944 160.737 45.1224 160.716 45.3582C160.07 48.4465 161.181 51.9653 159.498 54.634C157.666 57.5381 153.429 57.9408 151.209 60.5595C150.004 61.9811 149.537 63.8966 148.429 65.3953C147.321 66.8941 144.969 67.8469 143.639 66.5409C144.293 65.1974 144.471 63.6721 144.146 62.2141C143.82 60.7561 143.009 59.4518 141.846 58.5142C140.612 57.7088 139.281 57.0615 137.885 56.5876C136.326 55.9274 134.842 55.1005 133.46 54.1214C132.768 53.7038 132.206 53.1021 131.836 52.3832C131.543 51.4832 131.583 50.5081 131.947 49.6346C132.621 47.7015 133.811 45.9893 135.387 44.6829C136.963 43.3764 138.866 42.5254 140.891 42.2215C142.661 41.9807 144.722 42.0655 145.893 40.7166C146.513 40.0029 146.838 38.9238 147.738 38.6339C148.314 38.5183 148.911 38.5919 149.442 38.8437L156.05 41.1696C156.787 41.5024 157.598 41.6366 158.403 41.5589C158.803 41.5051 159.167 41.3023 159.423 40.9913C159.679 40.6802 159.808 40.2838 159.784 39.8817C159.572 38.7843 157.884 38.2577 158.037 37.1509C158.124 36.7922 158.316 36.468 158.591 36.2213C160.975 33.6831 163.892 31.7035 167.131 30.4243C170.37 29.1452 173.852 28.598 177.328 28.822C178.162 30.1918 176.843 31.8139 175.745 32.9832C174.648 34.1526 173.766 36.2419 175.093 37.142C175.637 37.4196 176.242 37.5559 176.852 37.5383C178.479 37.7585 180.06 38.238 181.535 38.9587C183.819 39.9524 186.058 41.0396 188.254 42.2204C188.06 40.7727 187.875 39.2475 188.424 37.8937C188.973 36.54 190.532 35.4783 191.894 36.0054C193.207 36.5135 193.881 38.2519 195.279 38.4111C197.145 38.6236 197.881 35.8672 197.102 34.1588C196.322 32.4503 194.78 31.0197 194.651 29.1463C194.564 27.8825 195.045 26.315 194.035 25.5497C193.676 25.3199 193.268 25.1769 192.844 25.132L167.636 20.4933C166.139 20.2178 163.977 20.4289 163.91 21.9495C163.873 22.7983 164.631 23.638 164.296 24.4184C163.937 25.2513 162.76 25.1751 161.902 25.4697C160.572 25.9268 159.904 27.5068 160.032 28.908C160.266 30.3002 160.805 31.6234 161.611 32.7826C159.971 32.0969 157.488 31.9709 155.849 31.2852Z" fill="#3F3D56"/>
<path d="M135.735 9.88672C134.146 9.36067 132.433 9.33617 130.829 9.81653C129.225 10.2969 127.807 11.2589 126.768 12.5721C126.353 13.1186 126.005 13.8719 126.352 14.4637C126.85 15.3121 128.12 14.977 129.056 14.6735C130.431 14.1821 131.928 14.1464 133.326 14.5716C134.205 14.8734 134.991 15.4066 135.873 15.6969C136.303 15.8766 136.774 15.936 137.234 15.8686C137.695 15.8013 138.129 15.6098 138.489 15.3147C139.095 14.6969 139.133 13.7364 139.134 12.8712C139.176 12.5817 139.153 12.2865 139.066 12.007C138.98 11.7276 138.832 11.4711 138.633 11.2561C138.28 11.0515 137.883 10.934 137.475 10.9136C136.562 10.7445 135.736 10.2621 135.141 9.54954" fill="#3F3D56"/>
<path d="M144.825 7.35586C144.469 7.33648 144.114 7.40895 143.795 7.56631C143.475 7.72366 143.201 7.96059 143 8.25433C142.798 8.54807 142.676 8.88873 142.644 9.24356C142.612 9.59838 142.672 9.95544 142.818 10.2804C143.91 10.5783 145.052 10.6527 146.174 10.4992C146.733 10.4123 147.255 10.1617 147.672 9.77905C148.089 9.39635 148.384 8.89867 148.519 8.34871C147.198 8.58909 145.835 8.32876 144.696 7.61851" fill="#3F3D56"/>
<path d="M175.321 3.12948C172.347 3.76166 169.459 4.74286 166.716 6.05268C168.009 6.54978 169.108 7.44917 169.852 8.61831C170.595 9.78746 170.943 11.1645 170.845 12.5465C170.729 13.0771 170.742 13.6278 170.884 14.1521C171.2 14.9183 172.116 15.2057 172.921 15.4024C174.368 15.8426 175.878 16.0354 177.389 15.9726C178.145 15.9331 178.879 15.7058 179.524 15.3112C180.17 14.9166 180.707 14.3672 181.087 13.7128C181.306 13.0917 181.563 12.4846 181.856 11.8949C183.786 8.95572 189.519 12.5096 191.591 9.66887C192.321 8.66818 192.254 7.16187 193.206 6.36892C193.698 6.02345 194.268 5.80577 194.866 5.73548C199.032 4.90761 203.241 4.30816 207.474 3.9398C209.479 3.76529 212.093 3.04523 212.11 1.03238C204.556 -0.451066 196.724 0.602537 189.832 4.02939C187.348 5.27325 184.064 7.88974 181.671 6.24069C180.776 5.62325 180.82 3.96065 179.587 3.26636C178.327 2.55654 176.659 2.84523 175.321 3.12948Z" fill="#3F3D56"/>
<path d="M200.023 7.74883L203.568 8.43012C202.916 8.40122 202.264 8.51183 201.658 8.75458C201.051 8.99733 200.503 9.36663 200.051 9.83786C199.598 10.3091 199.252 10.8714 199.034 11.4873C198.816 12.1031 198.732 12.7584 198.787 13.4093C202.107 14.5186 205.727 13.4392 209.225 13.5866C212.723 13.7341 216.792 16.2325 216.195 19.6819C216.014 20.7249 215.412 21.7672 215.725 22.7783C215.945 23.487 216.57 23.9898 216.923 24.6425C217.658 26.0025 217.07 27.7228 216.142 28.9591C215.214 30.1954 213.966 31.1819 213.151 32.4957C211.125 35.7635 212.276 39.9881 213.483 43.6388C213.832 45.0182 214.477 46.3053 215.372 47.4111C217.161 49.3127 220.075 49.478 222.685 49.5161C224.585 49.5438 226.761 49.45 227.963 47.9781C229.531 46.0565 228.434 43.0583 229.467 40.803C230.405 38.7548 232.794 37.8761 234.959 37.2528C238.925 36.1111 242.967 35.1404 246.716 33.4158C251.372 31.2743 255.723 27.937 260.84 27.6613C262.276 27.584 263.747 27.7534 265.13 27.3601C266.513 26.9667 267.827 25.7711 267.722 24.3372C267.633 23.112 266.596 22.2124 265.786 21.2888C264.976 20.3652 264.34 18.945 265.085 17.9678L278.498 15.4624C277.547 12.8713 276.806 9.45873 278.991 7.77212C279.779 7.16359 280.835 6.92037 281.506 6.18469C282.65 4.9308 282.075 2.77086 280.754 1.7045C279.434 0.638143 277.648 0.390594 275.957 0.250094C270.075 -0.238354 264.16 0.0844024 258.267 0.40741C246.748 1.03882 235.229 1.67023 223.71 2.30163C221.391 2.42874 218.714 2.23456 216.587 3.02567C214.787 3.69543 213.507 4.92483 211.447 5.35678C207.646 6.15419 203.463 5.61459 200.023 7.74883Z" fill="#3F3D56"/>
<path d="M263.542 35.7749C263.181 35.7177 262.811 35.8015 262.51 36.009C262.311 36.2283 262.192 36.509 262.174 36.8048C261.945 38.1101 262.218 39.4536 262.938 40.5665C263.304 41.1124 263.81 41.5502 264.403 41.8344C264.996 42.1187 265.654 42.2391 266.309 42.183C267.906 41.9795 269.082 40.6174 270.55 39.9528C272.812 38.9293 282.42 37.3339 275.774 33.7435C273.484 32.5062 272.004 33.5984 270.199 34.4133C268.145 35.464 265.844 35.9347 263.542 35.7749Z" fill="#3F3D56"/>
<path d="M321.75 5.72183C320.974 6.03886 320.325 6.60395 319.904 7.32885C319.71 7.69693 319.665 8.12549 319.778 8.52586C319.892 8.92623 320.154 9.26777 320.512 9.47982C320.802 9.58491 321.109 9.63365 321.418 9.62341L324.573 9.71768C325.913 9.75773 327.588 10.0432 327.948 11.3349C328.215 12.2941 327.617 13.5266 328.339 14.2121C328.649 14.4521 329.022 14.5975 329.412 14.6307C330.452 14.8977 331.537 14.9327 332.592 14.7333C334.887 14.1175 333.681 12.7163 334.404 11.4687C335.51 9.55966 335.319 10.7153 337.268 9.62118C338.708 8.81318 340.568 7.34745 339.367 5.28808C337.277 1.70689 324.834 4.18335 321.75 5.72183Z" fill="#3F3D56"/>
<path d="M384.028 3.92148L382.196 4.16598C378.064 4.71732 373.909 5.27374 369.93 6.51445C371.652 7.1955 373.46 7.63895 375.302 7.8326C376.316 7.88231 377.323 8.02549 378.311 8.26034C380.068 8.78356 381.839 10.1347 383.538 9.44257C384.59 9.01342 384.934 7.91718 385.806 7.3362C386.408 6.93502 388.692 6.2857 388.948 5.88079C391.012 2.60734 385.615 3.70973 384.028 3.92148Z" fill="#3F3D56"/>
<path d="M392.073 12.2486C389.626 13.6171 387.355 15.28 385.312 17.2002C384.451 18.0094 383.572 19.0159 383.65 20.1948C383.754 21.7617 385.423 22.6705 386.869 23.2828L392.726 25.7626C393.436 24.7611 392.786 23.3786 392.052 22.3945C391.317 21.4103 390.445 20.2717 390.769 19.0873C391.139 17.7358 392.787 17.2753 394.169 17.0425C396.421 16.6631 402.494 16.6935 401.764 13.0651C400.904 8.78979 394.333 10.9854 392.073 12.2486Z" fill="#3F3D56"/>
<path d="M390.896 254.194C390.338 255.809 390.285 257.71 391.25 259.12C392.332 260.701 394.498 261.291 396.372 260.89C398.238 260.393 399.901 259.324 401.128 257.832C402.249 256.582 403.172 255.167 403.863 253.637C404.828 251.253 405.508 248.762 405.891 246.219L407.709 236.67C408.115 234.536 408.1 227.994 404.178 230.126C403.106 230.708 400.625 235.306 399.502 236.609C397.479 238.959 397.211 241.239 396.146 244.086C394.811 247.651 392.129 250.623 390.896 254.194Z" fill="#3F3D56"/>
<path d="M598.048 303.055C596.765 302.555 595.519 301.962 594.321 301.281C593.12 304.584 592.481 308.064 592.432 311.578L601.214 306.609C602.535 305.861 604.032 304.823 604.004 303.305C604.016 303.117 603.977 302.93 603.891 302.763C603.806 302.596 603.677 302.455 603.518 302.355C603.323 302.276 603.111 302.251 602.903 302.282C601.6 302.391 600.413 303.032 599.185 303.477C597.956 303.923 596.52 304.158 595.393 303.497" fill="#3F3D56"/>
<path d="M644.374 306.006C643.411 306.268 642.469 306.606 641.558 307.016C639.543 308.042 638.172 309.989 636.358 311.34C634.623 312.632 632.534 313.342 630.483 314.032C629.88 314.565 630.157 315.639 630.812 316.107C631.516 316.508 632.323 316.689 633.131 316.629C635.262 316.676 637.507 316.696 639.373 315.667C640.424 314.985 641.408 314.204 642.311 313.335C644.493 311.514 647.114 310.313 649.708 309.152C650.652 308.796 651.524 308.274 652.285 307.611C653.915 306.005 654.03 303.528 651.68 302.981C649.781 302.54 646.183 305.421 644.374 306.006Z" fill="#3F3D56"/>
<path d="M664.843 292.635C664.949 291.53 664.802 290.416 664.414 289.376C664.025 288.336 663.406 287.398 662.602 286.633C662.578 288.844 662.511 291.199 661.267 293.027C660.382 294.329 658.992 295.209 658.022 296.45C657.051 297.691 656.62 299.657 657.759 300.746C658.487 301.3 659.373 301.605 660.287 301.617C662.554 301.884 665.177 302.032 666.766 300.395C667.634 299.501 668.056 298.178 669.114 297.521C669.508 297.355 669.86 297.103 670.144 296.784C670.581 296.089 669.887 295.174 669.105 294.924C668.324 294.673 667.463 294.791 666.677 294.553C665.892 294.316 665.171 293.433 665.574 292.718" fill="#3F3D56"/>
<path d="M628.463 211.581C627.274 211.87 626.043 211.943 624.828 211.795C622.811 211.425 621.241 209.904 619.612 208.657C615.74 205.709 611.033 204.064 606.167 203.96C601.741 203.876 597.273 205.075 592.926 204.239C593.21 205.818 594.562 207.003 596.004 207.707C597.447 208.412 599.038 208.766 600.488 209.456C602.809 210.572 604.649 212.487 605.673 214.85C606.139 215.939 606.433 217.125 607.14 218.076C608.585 220.021 611.324 220.448 613.742 220.289C616.894 220.082 620.186 219.175 623.118 220.349C625.361 221.248 626.966 223.211 628.839 224.738C630.712 226.264 633.35 227.397 635.501 226.296C633.267 225.572 631.323 224.154 629.952 222.248C628.581 220.341 627.855 218.047 627.881 215.699C629.99 215.893 636.066 215.818 635.738 212.234C635.461 209.196 630.275 211.253 628.463 211.581Z" fill="#3F3D56"/>
<path d="M600.87 236.295C601.244 234.241 603.293 232.427 602.655 230.439C602.213 229.064 600.619 228.385 599.176 228.351C597.732 228.317 596.314 228.747 594.871 228.788C593.931 228.738 592.989 228.751 592.052 228.828C589.186 229.299 587.42 232.302 584.72 233.37C583.078 234.019 581.234 233.895 579.526 234.344C575.65 235.363 573.197 239.025 570.488 241.979C566.11 246.729 560.406 250.055 554.116 251.526C551.912 252.037 549.543 252.363 547.791 253.795C545.471 255.69 544.9 258.94 544.384 261.891C542.958 270.04 540.778 278.04 537.874 285.787L547.078 286.962C548.828 287.186 550.641 287.404 552.327 286.886C553.552 286.424 554.713 285.806 555.78 285.047C559.879 282.502 564.467 280.846 569.247 280.186C571.657 279.855 574.184 279.794 576.446 280.69C578.708 281.586 580.648 283.618 580.838 286.043C581.816 285.739 582.858 285.706 583.854 285.948C584.849 286.19 585.76 286.698 586.489 287.418C587.93 288.886 588.874 290.77 589.187 292.804C589.429 294.063 589.672 295.572 590.841 296.1C591.794 296.531 592.887 296.067 593.93 295.984C597.469 295.7 600.405 299.826 603.883 299.116C607.613 298.354 608.529 292.767 612.168 291.648C614.258 291.006 617.19 291.787 618.191 289.843C619.073 288.129 617.313 286.152 617.494 284.233C617.718 281.871 620.505 280.868 622.653 279.86C630.06 276.384 633.575 266.415 629.986 259.063C627.859 254.707 623.675 251.278 622.902 246.492C622.308 242.81 623.759 238.516 621.411 235.618C620.217 234.144 618.195 233.33 617.485 231.571C617.037 230.464 617.217 229.207 616.976 228.037C616.736 226.868 615.715 225.644 614.56 225.947C611.207 226.827 610.137 237.186 608.342 239.702C605.613 243.528 600.01 241.008 600.87 236.295Z" fill="#3F3D56"/>
<path d="M538.892 215.495C537.746 215.174 536.495 214.857 535.397 215.316C534.299 215.775 533.658 217.387 534.539 218.187C541.433 217.919 548.369 217.652 555.204 218.588C563.079 219.667 570.873 222.339 578.782 221.553C574.264 220.22 569.671 219.154 565.028 218.361L557.284 216.882C555.207 216.447 553.108 216.122 550.996 215.91C546.579 215.545 543.235 216.713 538.892 215.495Z" fill="#3F3D56"/>
<path d="M545.793 191.485C545.221 191.437 544.512 191.396 544.216 191.888C543.933 192.358 544.257 192.98 544.105 193.507C543.897 194.227 542.954 194.411 542.211 194.313C541.468 194.215 540.664 193.98 540.006 194.338C539.672 194.567 539.421 194.897 539.29 195.28C539.16 195.662 539.157 196.077 539.283 196.462C539.552 197.225 539.987 197.919 540.557 198.493C541.531 199.72 542.641 200.833 543.865 201.811C546.234 203.56 549.444 204.402 550.936 206.941C551.147 207.433 551.47 207.869 551.881 208.212C552.597 208.666 553.531 208.321 554.303 207.969L557.006 206.733C557.493 206.558 557.928 206.262 558.27 205.874C558.888 205.035 558.509 203.844 557.99 202.941C557.472 202.038 556.808 201.104 556.919 200.068C557.118 198.223 559.491 197.517 560.467 195.937C561.45 194.346 560.81 192.295 560.923 190.427C561.056 188.242 562.428 185.401 560.22 183.769C558.343 182.382 556.55 183.664 555.202 185.195C552.361 188.424 551.017 191.921 545.793 191.485Z" fill="#3F3D56"/>
<path d="M562.205 158.848C563.128 160.615 565.052 161.67 566.059 163.391C567.15 165.257 567.026 167.667 568.209 169.476C569.424 171.331 571.867 172.316 572.548 174.426C573.292 176.73 571.605 179.53 572.95 181.543C573.2 181.872 573.517 182.145 573.879 182.346C574.241 182.546 574.64 182.669 575.052 182.707C575.464 182.745 575.88 182.697 576.272 182.566C576.664 182.435 577.025 182.223 577.332 181.946C577.899 181.328 578.202 180.514 578.177 179.676C578.153 178.838 577.802 178.043 577.199 177.461C576.403 176.735 575.26 176.421 574.595 175.573C574.249 175.084 574.018 174.522 573.92 173.931C573.558 172.225 573.616 170.457 574.09 168.778C574.267 168.352 574.313 167.882 574.219 167.43C573.92 166.56 572.742 166.499 571.915 166.095C570.038 165.179 570.083 162.529 570.411 160.465C570.193 161.839 565.299 159.503 564.787 158.724C563.769 157.179 564.323 154.197 564.121 152.488C561.924 153.547 561.076 156.687 562.205 158.848Z" fill="#3F3D56"/>
<path d="M512.905 186.041C512.002 185.03 510.642 183.972 509.431 184.582C508.507 185.047 508.253 186.325 508.615 187.294C509.056 188.235 509.735 189.045 510.585 189.643C513.109 191.724 515.826 193.603 518.028 196.022C521.967 200.352 524.054 206.194 528.339 210.182C529.2 211.107 530.341 211.724 531.586 211.939C532.834 212.055 534.236 211.256 534.379 210.011C534.497 208.985 533.782 208.067 533.083 207.306C531.419 205.496 529.597 203.83 528.026 201.938C527.3 201.211 526.844 200.259 526.733 199.238C526.725 198.219 527.654 197.153 528.64 197.406C527.44 197.099 526.55 195.099 524.789 194.723C523.316 194.409 522.96 195.321 521.208 194.569C517.867 193.136 515.245 188.661 512.905 186.041Z" fill="#3F3D56"/>
<path d="M591.419 87.5887C590.46 87.3039 589.518 86.9672 588.596 86.5803C586.115 85.8356 582.832 87.6592 583.163 90.2283C583.383 91.9353 584.971 93.0861 585.849 94.5667C587.15 96.7624 586.803 99.5474 586.119 102.006C585.951 102.768 585.632 103.488 585.181 104.123C584.549 104.794 583.794 105.337 582.957 105.722C579.607 107.601 576.652 110.111 574.257 113.114C573.996 113.391 573.815 113.733 573.731 114.104C573.613 114.972 574.485 115.604 574.978 116.327C576.073 117.934 575.282 120.097 575.39 122.038C575.373 122.313 575.427 122.587 575.546 122.835C575.665 123.083 575.846 123.297 576.07 123.455C576.73 123.79 577.512 123.221 577.87 122.573C579.057 120.422 578.163 116.97 580.39 115.933C580.811 115.737 581.322 115.654 581.603 115.284C582.049 114.697 581.619 113.828 581.845 113.126C582.184 112.072 583.625 112.025 584.731 112.072C586.636 112.151 588.54 111.898 590.357 111.323C591.07 111.153 591.718 110.778 592.22 110.244C592.886 109.413 592.827 108.232 592.694 107.175C592.028 101.909 590.359 96.8192 587.779 92.1801C589.736 92.43 591.864 92.6464 593.552 91.6269C594.498 91.056 595.631 89.3488 595.162 88.1868C594.421 86.3492 593.081 87.8959 591.419 87.5887Z" fill="#3F3D56"/>
<path d="M340.623 116.552C340.857 117.808 341.088 119.13 340.676 120.339C340.265 121.548 338.97 122.559 337.748 122.188C336.799 121.901 336.251 120.947 335.577 120.219C331.831 116.175 323.38 118.517 321.065 113.513C320.121 111.471 320.763 109.025 320.119 106.87C319.712 105.624 318.904 104.548 317.82 103.812C316.736 103.075 315.438 102.72 314.13 102.801C312.937 102.973 311.776 103.32 310.684 103.83C303.367 106.76 295.686 108.681 287.851 109.541C286.362 109.631 284.889 109.899 283.464 110.339C280.247 111.505 278.049 114.488 276.485 117.531C274.92 120.574 273.765 123.869 271.668 126.573C269.464 129.415 266.376 131.405 263.494 133.557C262.385 134.272 261.46 135.241 260.798 136.383C260.173 137.665 260.209 139.157 260.257 140.582L260.846 157.896C260.922 160.123 261.017 162.429 262.014 164.422C263.258 166.911 265.717 168.541 267.423 170.739C269.163 172.998 270.07 175.789 269.989 178.64C269.953 179.786 269.839 181.142 270.732 181.862C271.275 182.214 271.91 182.397 272.557 182.387L295.977 184.304C300.097 184.641 304.663 185.195 307.352 188.334C308.622 189.815 309.641 191.945 311.586 192.104C312.42 192.172 313.231 191.83 314.065 191.764C316.17 191.597 318.019 193.195 319.186 194.954C320.952 197.636 321.753 200.838 321.459 204.036C321.267 206.043 320.645 207.994 320.511 210.005C320.001 217.66 326.489 224.31 326.615 231.98C326.689 236.492 324.547 240.708 322.459 244.708C325.829 249.813 323.07 256.612 324.411 262.58C325.684 268.243 330.406 272.676 331.582 278.359C332.121 280.961 332.152 284.163 334.446 285.503C335.453 285.994 336.569 286.217 337.687 286.152C344.431 286.232 351.098 284.714 357.143 281.723C359.98 280.315 362.92 278.213 363.415 275.085C363.815 272.563 362.536 269.741 363.837 267.544C365.372 264.954 369.303 265.159 371.56 263.168C375.223 259.938 372.367 253.778 373.851 249.125C375.185 244.943 379.776 242.721 382.052 238.968C382.948 237.354 383.591 235.612 383.958 233.802C385.001 229.478 385.65 225.069 385.897 220.628C385.958 217.93 386.157 215.236 386.493 212.559C388.947 197.313 404.019 187.104 408.913 172.458C409.38 171.059 409.6 169.196 408.355 168.405C407.617 168.053 406.78 167.965 405.985 168.157L395.189 169.518C393.848 169.687 392.427 169.845 391.196 169.288C389.964 168.731 389.082 167.173 389.735 165.99C391.568 162.669 387.797 158.471 386.121 155.068C381.608 145.902 376.234 137.187 370.071 129.039C369.677 128.62 369.429 128.083 369.367 127.511L372.431 127.613C371.397 123.902 369.69 119.84 366.084 118.483C364.053 117.718 361.803 117.982 359.635 118.101C353.426 118.44 346.769 117.502 340.623 116.552Z" fill="#3F3D56"/>
<path d="M359.64 32.9153C361.265 34.6408 363.085 36.4702 365.436 36.7709C369.589 37.3022 372.574 33.0083 374.475 29.2786C374.545 30.2294 374.984 31.1153 375.697 31.7478C376.411 32.3803 377.343 32.7095 378.295 32.6654C379.32 32.493 380.298 32.1106 381.169 31.5421C389.396 27.0462 398.61 24.664 407.986 24.6096C407.896 23.8995 408.072 23.1811 408.48 22.5931C408.889 22.0052 409.5 21.5893 410.197 21.4258C412.103 21.0479 413.82 22.6959 414.74 24.4079C415.66 26.1198 416.233 28.1041 417.694 29.3855C419.155 30.6669 421.983 30.6111 422.56 28.7555C423.114 26.974 421.258 25.4548 419.716 24.4045C418.175 23.3542 416.549 21.4103 417.588 19.8603C425.465 18.1166 433.391 16.3663 441.451 16.0198C442.824 16.0675 444.191 15.832 445.468 15.3278C446.698 14.7246 447.675 13.3553 447.344 12.0265C445.585 12.44 443.743 12.3202 442.052 11.6825C440.361 11.0448 438.899 9.91806 437.851 8.4459C449.036 7.52295 460.932 6.73626 470.844 11.999C472.033 14.5524 465.971 16.6769 467.593 18.9799C468.11 19.7145 469.147 19.8006 470.045 19.8173C476.933 19.9452 483.86 20.0706 490.671 19.0307C493.159 18.6506 495.673 18.1141 498.172 18.4223C502.334 18.9356 505.893 21.7125 509.988 22.6179C511.654 22.9864 513.523 22.9988 514.927 22.0296C516.332 21.0603 516.936 18.8532 515.785 17.5932C519.64 13.8149 526.038 14.7513 531.124 16.5602C536.21 18.369 541.028 21.2861 546.411 21.6893C550.271 21.9785 554.184 20.9402 557.998 21.6001C560.395 22.0149 562.626 23.0811 564.968 23.7362C569.399 24.9752 574.086 24.7136 578.686 24.7733C590.423 24.9314 602.032 27.2382 612.937 31.5793C614.356 32.0412 615.656 32.8092 616.745 33.829C617.76 34.9157 618.277 36.6043 617.595 37.9255L606.326 36.2789C607.388 38.3691 610.135 38.7253 612.365 39.4464C614.596 40.1674 616.909 42.631 615.569 44.5543C613.151 43.7847 610.961 46.2012 609.74 48.4247C608.519 50.6481 607.031 53.311 604.498 53.4464C602.23 53.5677 599.487 51.6363 598.008 53.3608C600.051 55.9376 601.8 58.7339 603.223 61.6981C604.684 64.7411 605.724 68.5755 603.75 71.3133C603.439 71.8021 602.968 72.1674 602.418 72.3466C600.805 72.7547 599.758 70.7823 598.601 69.5867C597.144 68.0802 594.941 67.6535 592.968 66.947C590.994 66.2404 588.916 64.8505 588.761 62.7603C588.665 61.4599 589.352 60.251 589.858 59.049C590.708 57.0231 591.08 54.8286 590.944 52.6357C590.833 50.8716 590.339 49.0365 589.072 47.8039C587.805 46.5713 585.617 46.1802 584.257 47.3092C583.623 47.8359 583.114 48.6785 582.29 48.71C580.834 48.7658 579.716 46.2269 578.544 47.0936C578.681 48.017 578.49 48.9594 578.003 49.7559C574.507 52.7966 569.136 51.5102 564.629 52.5843C562.486 53.1977 560.434 54.0938 558.527 55.2491C557.814 55.554 557.207 56.0635 556.783 56.713C556.22 57.8064 556.841 59.2066 557.832 59.9336C558.884 60.5786 560.066 60.982 561.292 61.1146C566.787 62.1552 572.362 63.7662 576.7 67.2956C581.038 70.825 583.883 76.6592 582.51 82.0806L571.674 71.7265C572.086 76.074 572.319 80.4334 572.375 84.8048C572.445 85.6583 572.328 86.5169 572.032 87.3204C571.259 89.0266 569.165 89.6008 567.331 89.9774C566.82 90.0744 566.336 90.2782 565.91 90.5755C565.484 90.8728 565.126 91.2568 564.859 91.7024C564.592 92.148 564.423 92.645 564.361 93.1608C564.3 93.6766 564.349 94.1995 564.504 94.6952C565.156 96.82 566.781 98.4765 568.269 100.127C569.758 101.778 571.222 103.654 571.417 105.868C571.612 108.082 569.941 110.577 567.724 110.423C566.044 110.306 564.797 108.802 564.08 107.277C563.363 105.752 562.936 104.054 561.859 102.759C558.599 98.8374 551.276 100.517 548.355 96.3371C547.611 97.1816 547.094 98.2024 546.855 99.3026C546.616 100.403 546.662 101.546 546.989 102.623C548.348 101.772 550.208 102.563 551.229 103.799C552.25 105.035 552.731 106.619 553.533 108.007C554.615 109.881 556.337 111.541 556.488 113.699C556.448 114.515 556.461 115.333 556.529 116.147C556.797 117.454 557.902 118.393 558.668 119.486C560.451 122.029 560.363 125.522 559.214 128.408C558.065 131.293 556 133.704 553.955 136.041C550.384 140.124 546.739 144.183 542.505 147.573C541.297 148.541 540.007 149.492 539.255 150.844C538.502 152.197 538.464 154.095 539.62 155.124C538.793 155.166 537.309 155.573 536.481 155.614C536.19 152.295 536.127 148.96 536.292 145.632C533.027 144.064 529.511 148.263 529.932 151.86C530.354 155.458 532.956 158.345 534.808 161.457C536.163 163.733 537.17 166.387 536.718 168.997C536.265 171.607 533.936 174.015 531.297 173.785C527.1 173.419 525.344 167.393 521.188 166.703C520.821 166.617 520.436 166.655 520.094 166.812C519.477 167.151 519.37 167.976 519.335 168.679C519.165 172.129 519.018 175.716 520.364 178.897C522.335 183.551 527.425 187.459 526.357 192.398C520.605 189.724 517.615 183.274 516.257 177.079C514.899 170.883 514.673 164.378 512.239 158.521C510.391 160.89 506.506 158.932 504.817 156.447C503.216 154.091 502.231 151.365 500.678 148.978C499.124 146.59 496.745 144.452 493.9 144.321C490.916 144.183 488.329 146.23 486.054 148.165C484.183 149.755 482.262 151.408 481.168 153.607C479.577 156.807 479.993 160.579 479.916 164.152C479.833 168.014 479.015 172.089 476.382 174.917C473.75 177.744 468.891 178.729 465.987 176.181C464.471 174.851 463.737 172.863 463.083 170.955C459.932 161.757 457.307 152.388 455.222 142.891C454.735 145.059 452.831 147.852 451.013 146.576C450.605 146.232 450.275 145.807 450.043 145.326C446.652 139.578 440.371 136.13 434.026 134.063C427.68 131.996 421.003 131.032 414.728 128.76C411.211 127.486 407.852 125.813 404.717 123.773C403.918 124.947 403.451 126.316 403.367 127.734C403.282 129.151 403.582 130.566 404.236 131.827C405.628 134.291 408.778 135.718 411.475 134.856C412.868 134.411 414.045 133.444 415.427 132.966C416.81 132.488 418.666 132.723 419.27 134.055C419.849 135.33 418.974 136.872 419.408 138.203C420.069 140.231 423.127 140.387 424.196 142.232C424.992 143.605 424.337 145.428 423.201 146.536C422.065 147.644 420.55 148.251 419.163 149.022C414.664 151.524 411.464 155.795 407.532 159.118C403.599 162.441 398.051 164.868 393.365 162.736C394.482 157.08 387.744 152.927 386.505 147.296C386.097 145.442 386.308 143.474 385.726 141.668C384.882 139.053 382.562 137.255 380.659 135.273C378.351 132.843 376.552 129.976 375.37 126.84C374.188 123.704 373.646 120.363 373.775 117.014C373.878 114.686 374.306 112.321 373.776 110.053C373.245 107.785 371.367 105.589 369.04 105.692C363.725 105.927 357.029 106.322 354.24 101.791C353.245 100.174 352.812 97.8056 354.251 96.5666C355.266 95.6926 356.764 95.7749 358.098 95.9061L370.074 97.0842C372.875 97.3597 375.902 97.5871 378.306 96.1228C380.71 94.6585 381.751 90.7715 379.525 89.0487C377.899 87.7899 374.986 87.8582 374.513 85.8567C374.119 84.1899 375.964 82.2986 374.968 80.9056C374.253 79.9068 372.647 80.1839 371.674 80.9326C370.7 81.6814 369.994 82.7764 368.905 83.3434C366.994 84.3379 364.71 83.3914 362.654 82.7481C360.598 82.1048 357.842 82.0502 356.845 83.9598C355.729 86.0954 357.834 88.8938 356.727 91.0338C355.264 93.8631 350.308 92.2524 348.253 94.6861C345.895 97.4787 349.858 101.643 349.062 105.21C348.047 105.713 346.919 105.944 345.787 105.881C344.656 105.817 343.561 105.461 342.608 104.848C341.671 104.211 340.924 103.331 340.447 102.303C339.97 101.275 339.78 100.138 339.899 99.0105C340.095 97.4056 340.932 95.7674 340.372 94.2508C339.918 93.0246 338.687 92.2946 337.543 91.6623L325.905 85.2312C324.824 87.2356 326.19 89.7205 327.899 91.226C329.607 92.7315 331.747 93.8654 332.869 95.8467C333.579 97.2195 333.738 98.8114 333.314 100.297C332.89 101.784 331.915 103.052 330.587 103.843C330.421 103.958 330.231 104.035 330.032 104.07C329.833 104.105 329.629 104.096 329.433 104.044C329.248 103.935 329.086 103.79 328.957 103.617C328.829 103.444 328.736 103.247 328.685 103.038C326.632 97.7832 323.549 92.6022 318.62 89.8572C313.691 87.1122 306.609 87.6766 303.376 92.3007C302.609 93.399 302.093 94.651 301.425 95.8122C297.872 101.982 290.254 104.903 283.137 104.712C282.441 104.751 281.749 104.588 281.142 104.243C279.992 103.449 280.044 101.763 280.22 100.377L280.967 94.4917C281.117 93.31 281.335 92.0038 282.27 91.2661C283.588 90.2263 285.49 90.8825 287.169 90.8583C288.441 90.7988 289.664 90.3495 290.672 89.5715C291.68 88.7935 292.425 87.7243 292.805 86.5089C293.144 85.2815 293.142 83.9848 292.799 82.7586C292.455 81.5323 291.784 80.423 290.857 79.5501C290.087 78.8273 289.054 77.9194 289.461 76.945C289.623 76.6755 289.842 76.4448 290.103 76.2691C290.364 76.0934 290.66 75.977 290.971 75.928C293.987 75.0522 297.174 74.8227 300.139 73.7893C303.105 72.7559 305.981 70.6416 306.683 67.5806C306.899 66.6426 306.997 65.5062 307.839 65.0411C308.262 64.8626 308.716 64.7699 309.175 64.7682C310.783 64.5395 312.247 63.7172 313.279 62.4631C314.31 61.209 314.835 59.6141 314.75 57.9923C316.172 56.9992 318.163 57.7298 319.538 58.786C320.913 59.8423 322.127 61.2379 323.8 61.6932C326.918 62.5418 329.931 59.7813 333.162 59.7685C334.521 59.7631 335.927 60.2435 337.206 59.7828C338.502 59.3158 339.276 58.0258 340.27 57.0727C341.265 56.1196 343.01 55.5383 343.929 56.565L343.147 50.7719C344.722 51.1698 346.364 51.2261 347.962 50.9371C349.561 50.6481 351.079 50.0204 352.415 49.0962L342.307 45.6809C341.955 45.593 341.63 45.4194 341.362 45.1755C340.627 44.3842 341.357 43.1511 341.955 42.2515C343.384 40.0996 343.624 36.555 341.273 35.4836C339.669 34.7524 337.827 35.6302 336.287 36.4889L328.909 40.6025C328.675 42.0048 330.39 42.7996 331.452 43.7442C332.095 44.3157 332.55 45.0683 332.758 45.9031C332.965 46.738 332.915 47.6161 332.614 48.422C332.313 49.2279 331.776 49.924 331.072 50.4189C330.369 50.9137 329.532 51.1842 328.672 51.1947C329.157 51.8263 329.495 52.5591 329.659 53.3388C329.824 54.1186 329.81 54.9253 329.621 55.6992L324.657 56.0562C324.1 56.1683 323.521 56.0553 323.047 55.7419C322.516 55.2704 322.588 54.4442 322.465 53.7449C322.168 52.0571 320.515 50.8741 318.828 50.5708C317.142 50.2675 315.416 50.6563 313.746 51.0402C313.037 51.2954 312.258 51.2774 311.561 50.9897C311.162 50.7302 310.858 50.3471 310.697 49.8988C309.965 48.1234 310.649 46.0365 311.825 44.5182C313.001 42.9999 314.611 41.8899 316.057 40.6259C319.515 37.5921 322.055 33.6518 323.391 29.2502C326.124 28.1053 328.953 26.5497 331.685 25.4048C335.898 23.2718 340.623 22.3564 345.327 22.7616L354.581 22.9384C357.321 22.9907 360.135 23.0578 362.669 24.1023C365.202 25.1468 367.428 27.406 367.603 30.1407C367.656 30.4503 367.629 30.7683 367.525 31.0647C367.422 31.3611 367.244 31.6263 367.01 31.8354C366.652 32.0306 366.247 32.122 365.84 32.0991C363.285 32.1889 362.195 32.8255 359.64 32.9153Z" fill="#3F3D56"/>
<path d="M285.879 61.9178C286.24 61.5756 286.501 61.1404 286.631 60.6599C286.761 60.1794 286.756 59.6724 286.617 59.1944C285.738 58.8549 284.78 58.7677 283.854 58.9427C282.927 59.1177 282.068 59.5478 281.372 60.1848C280.824 60.7393 280.352 61.3639 279.967 62.0423C278.751 64.0263 277.676 66.396 278.38 68.6137C278.438 68.8555 278.543 69.0835 278.69 69.2841C278.836 69.4848 279.022 69.6542 279.235 69.7822C279.551 69.909 279.891 69.9623 280.231 69.9382C281.57 69.9365 282.909 69.8541 284.238 69.6916C285.055 69.5917 286.003 69.3611 286.319 68.6014C286.734 67.6027 285.73 66.4725 286.022 65.4315C286.215 64.9659 286.507 64.548 286.877 64.2069C287.061 64.0351 287.203 63.8228 287.29 63.5869C287.378 63.351 287.409 63.0979 287.382 62.8477C287.264 62.3593 286.516 62.0821 286.246 62.5065" fill="#3F3D56"/>
<path d="M292.825 52.9118C291.635 52.6386 290.409 52.5615 289.194 52.6838C288.925 52.6758 288.659 52.7363 288.42 52.8596C288.188 53.0303 288.021 53.2733 287.943 53.5502C287.686 54.3737 287.749 55.2637 288.12 56.0429C288.49 56.822 289.14 57.4331 289.94 57.7545C290.377 57.8548 290.795 58.0227 291.179 58.2522C292.206 59.0492 291.551 60.6781 291.746 61.9635C291.964 63.4069 293.361 64.6184 293.105 66.0556C292.903 67.1878 291.694 68.0844 291.889 69.2179C292.093 70.405 293.599 70.7618 294.8 70.8568C295.496 70.9787 296.212 70.8966 296.862 70.6205C297.514 70.1748 297.978 69.5034 298.164 68.7359C298.655 67.2726 298.862 65.7287 298.772 64.1876C298.767 63.4867 298.591 62.7976 298.259 62.1801C297.898 61.6908 297.497 61.2319 297.061 60.8077C294.76 58.1316 297.183 54.1398 292.825 52.9118Z" fill="#3F3D56"/>
<path opacity="0.8" d="M595.356 262.55C595.356 262.55 419.149 161.404 343.29 180.569C343.29 180.569 182.521 197.87 163.889 235.933C163.889 235.933 112.784 76.2287 94.1519 70.9053" stroke="#3DB2FF" stroke-width="2" stroke-miterlimit="10"/>
<path opacity="0.8" d="M163.889 235.933C193.434 157.145 459.608 69.8406 459.608 69.8406C421.811 79.4228 343.29 180.569 343.29 180.569C343.29 180.569 177.198 59.726 94.1519 70.9053C94.1519 70.9053 459.874 82.883 595.356 262.55" stroke="#3DB2FF" stroke-width="2" stroke-miterlimit="10"/>
<path d="M94.1519 78.6243C98.415 78.6243 101.871 75.1684 101.871 70.9053C101.871 66.6422 98.415 63.1863 94.1519 63.1863C89.8888 63.1863 86.4329 66.6422 86.4329 70.9053C86.4329 75.1684 89.8888 78.6243 94.1519 78.6243Z" fill="#3DB2FF"/>
<path d="M163.889 243.651C168.152 243.651 171.608 240.196 171.608 235.932C171.608 231.669 168.152 228.213 163.889 228.213C159.626 228.213 156.17 231.669 156.17 235.932C156.17 240.196 159.626 243.651 163.889 243.651Z" fill="#3DB2FF"/>
<path d="M459.607 77.5596C463.871 77.5596 467.326 74.1037 467.326 69.8406C467.326 65.5775 463.871 62.1216 459.607 62.1216C455.344 62.1216 451.888 65.5775 451.888 69.8406C451.888 74.1037 455.344 77.5596 459.607 77.5596Z" fill="#3DB2FF"/>
<path d="M595.356 270.269C599.619 270.269 603.075 266.813 603.075 262.55C603.075 258.287 599.619 254.831 595.356 254.831C591.093 254.831 587.637 258.287 587.637 262.55C587.637 266.813 591.093 270.269 595.356 270.269Z" fill="#3DB2FF"/>
<path d="M343.29 188.288C347.553 188.288 351.009 184.832 351.009 180.569C351.009 176.306 347.553 172.85 343.29 172.85C339.027 172.85 335.571 176.306 335.571 180.569C335.571 184.832 339.027 188.288 343.29 188.288Z" fill="#3DB2FF"/>
</svg>
