<svg height="100%" width="100%" id="svg" viewBox="0 0 1440 600" xmlns="http://www.w3.org/2000/svg" class="transition duration-300 ease-in-out delay-150"><defs><linearGradient id="gradient"><stop offset="5%" stop-color="#002bdcff"></stop><stop offset="95%" stop-color="#32ded4ff"></stop></linearGradient></defs><path d="M 0,600 C 0,600 0,300 0,300 C 69.98490427098676,308.8453608247423 139.96980854197352,317.69072164948454 198,296 C 256.0301914580265,274.30927835051546 302.1056701030928,222.08247422680415 354,250 C 405.8943298969072,277.91752577319585 463.6075110456553,385.97938144329896 520,374 C 576.3924889543447,362.02061855670104 631.4642857142857,230.00000000000003 693,219 C 754.5357142857143,207.99999999999997 822.5353460972018,318.02061855670104 897,319 C 971.4646539027982,319.97938144329896 1052.394329896907,211.91752577319585 1106,220 C 1159.605670103093,228.08247422680415 1185.8873343151695,352.3092783505155 1237,385 C 1288.1126656848305,417.6907216494845 1364.0563328424153,358.8453608247422 1440,300 C 1440,300 1440,600 1440,600 Z" stroke="none" stroke-width="0" fill="url(#gradient)" class="transition-all duration-300 ease-in-out delay-150" transform="rotate(-180 720 300)"></path></svg>